<?xml version="1.0" encoding="utf-8"?>
<!-- Generator: Adobe Illustrator 24.0.1, SVG Export Plug-In . SVG Version: 6.00 Build 0)  -->
<svg version="1.1" id="Capa_1" xmlns="http://www.w3.org/2000/svg" xmlns:xlink="http://www.w3.org/1999/xlink" x="0px" y="0px"
	 viewBox="0 0 512 512" style="enable-background:new 0 0 512 512;" xml:space="preserve">
<style type="text/css">
	.st0{fill:#FFD400;}
	.st1{fill:#FF851B;}
	.st2{fill:#D3D3D8;}
	.st3{fill:#FFA500;}
	.st4{fill:#F4511E;}
</style>
<circle class="st0" cx="256" cy="256" r="256"/>
<path class="st1" d="M512,256c0-0.1,0-0.2,0-0.3L375.3,119L100.1,374.7l136.5,136.5c6.4,0.5,12.8,0.7,19.3,0.7
	C397.4,512,512,397.4,512,256z"/>
<path class="st2" d="M100.1,155.5v219.2h112.6c6,10.8,22.7,18.3,43.3,18.3s37.3-7.5,43.3-18.3h112.6V155.5H100.1z"/>
<path class="st1" d="M270.4,119L256,133.4L241.6,119H136.7v219.2h97.2l22.1,22.1l22.1-22.1h97.2V119H270.4z"/>
<polygon class="st3" points="375.3,119 375.3,338.2 278.1,338.2 256,360.3 256,133.4 270.4,119 "/>
<path class="st1" d="M-311.2,1089.7"/>
<path class="st1" d="M-311.2,577.7"/>
<path class="st4" d="M-330.5,1088.9c6.4,0.5,12.8,0.7,19.3,0.7"/>
</svg>
